<svg width="72" height="72" viewBox="0 0 72 72" fill="none" xmlns="http://www.w3.org/2000/svg">
<path d="M42 6.00001H18C16.4087 6.00001 14.8826 6.63215 13.7574 7.75737C12.6321 8.88259 12 10.4087 12 12V60C12 61.5913 12.6321 63.1174 13.7574 64.2427C14.8826 65.3679 16.4087 66 18 66H54C55.5913 66 57.1174 65.3679 58.2426 64.2427C59.3679 63.1174 60 61.5913 60 60V24M42 6.00001C42.9497 5.99847 43.8902 6.18482 44.7676 6.54832C45.6449 6.91182 46.4417 7.44529 47.112 8.11801L57.876 18.882C58.5505 19.5525 59.0855 20.35 59.4501 21.2285C59.8146 22.1069 60.0015 23.0489 60 24M42 6.00001V21C42 21.7957 42.3161 22.5587 42.8787 23.1213C43.4413 23.6839 44.2044 24 45 24H60M36 36V54M36 36L45 45M36 36L27 45" stroke="#818181" stroke-width="6" stroke-linecap="round" stroke-linejoin="round"/>
</svg>
