<svg width="114" height="57" viewBox="0 0 114 57" fill="none" xmlns="http://www.w3.org/2000/svg">
<path d="M56.4876 0.634892H55.4636L52.9239 2.71664C52.9239 2.71664 52.5369 3.04972 52.3998 2.71664C52.3998 2.71664 52.2467 1.67955 51.3195 1.15722C51.3195 1.15722 46.2804 -2.2417 33.7028 2.61066C33.7028 2.61066 16.5134 9.72644 7.49944 18.6742C7.49944 18.6742 1.24289 24.2608 0.0496343 28.6211C0.0496343 28.6211 -0.498619 31.3009 2.04915 32.1336C2.04915 32.1336 7.92676 34.0791 18.9402 29.5901C18.9402 29.5901 27.551 25.9186 29.0104 24.503H27.3737C27.3737 24.503 18.392 29.2343 13.3287 30.2562C13.3287 30.2562 3.69391 32.5272 6.29006 26.9633C6.29006 26.9633 11.434 16.2593 36.7262 4.26091C36.7262 4.26091 41.0074 2.40627 44.8775 1.98992C44.8775 1.98992 49.9891 1.45245 49.8359 4.1625C49.8359 4.1625 49.6828 5.45697 48.5137 6.47892L46.0707 8.87103H46.7964L56.4876 0.634892Z" fill="#818181" fill-opacity="0.2"/>
<path d="M69.1216 53.1099C68.3718 53.1099 67.6865 52.7238 67.3318 52.1106L54.7542 30.3166L41.588 7.52344L28.4299 30.3166L15.8523 52.1106C15.4975 52.7314 14.8042 53.1099 14.0624 53.1099H11.2002V56.1757H72V53.1099H69.1216Z" fill="#818181" fill-opacity="0.2"/>
<path d="M45.7188 24.2355C46.0195 24.8599 46.1175 25.4865 46.0127 26.1154H43.9072C43.8753 25.6323 43.7773 25.2678 43.6133 25.0217C43.3262 24.5842 42.8066 24.3654 42.0547 24.3654C41.2891 24.3654 40.6191 24.6753 40.0449 25.2951C39.4707 25.9103 39.0651 26.7831 38.8281 27.9133C38.5866 29.0435 38.639 29.8911 38.9854 30.4562C39.3317 31.0168 39.8649 31.2971 40.585 31.2971C41.3232 31.2971 41.9385 31.0555 42.4307 30.5724C42.6995 30.3127 42.9593 29.923 43.21 29.4035H45.2949C44.8802 30.5018 44.224 31.395 43.3262 32.0832C42.4329 32.7713 41.4007 33.1154 40.2295 33.1154C38.7803 33.1154 37.7389 32.6506 37.1055 31.7209C36.4766 30.7866 36.3353 29.506 36.6816 27.8791C37.0553 26.12 37.8141 24.7642 38.958 23.8117C39.9561 22.9823 41.0885 22.5676 42.3555 22.5676C44.0508 22.5676 45.1719 23.1236 45.7188 24.2355ZM46.0674 29.8547L46.4639 28.009H50.3877L49.9912 29.8547H46.0674ZM55.0908 22.759L53.334 31.0236H58.3242L57.9414 32.8351H50.8457L52.9854 22.759H55.0908ZM59.2402 32.8351L61.3799 22.759H63.4717L61.332 32.8351H59.2402ZM69.3438 32.8351L66.7461 25.6779L65.2285 32.8351H63.2666L65.4062 22.759H67.6143L70.1299 29.7932L71.627 22.759H73.5889L71.4492 32.8351H69.3438ZM76.2344 29.465L75.5234 32.8351H73.4521L75.5918 22.759H77.6631L76.7812 26.9084L81.5527 22.759H84.2734L79.2627 26.9084L82.3457 32.8351H79.6387L77.458 28.4328L76.2344 29.465ZM36.9824 40.5432L37.3652 38.759H45.5273L45.1445 40.5432H42.1299L40.373 48.8351H38.2539L40.0107 40.5432H36.9824ZM47.8105 47.1603C47.9701 47.0373 48.1273 46.8664 48.2822 46.6476H50.2715C50.1257 47.0897 49.7998 47.5386 49.2939 47.9943C48.501 48.7189 47.5303 49.0812 46.3818 49.0812C45.4339 49.0812 44.6615 48.7759 44.0645 48.1652C43.472 47.5545 43.3216 46.5611 43.6133 45.1848C43.8867 43.895 44.4222 42.9061 45.2197 42.218C46.0218 41.5298 46.9447 41.1857 47.9883 41.1857C48.6081 41.1857 49.1413 41.3019 49.5879 41.5344C50.0391 41.7668 50.3717 42.1336 50.5859 42.6349C50.7865 43.077 50.8662 43.5897 50.8252 44.173C50.807 44.5148 50.7249 45.007 50.5791 45.6496H45.4795C45.3473 46.397 45.4704 46.9211 45.8486 47.2219C46.0765 47.4087 46.3796 47.5021 46.7578 47.5021C47.1589 47.5021 47.5098 47.3882 47.8105 47.1603ZM47.6465 42.7922C47.1953 42.7922 46.8148 42.9335 46.5049 43.216C46.1995 43.4986 45.9648 43.8814 45.8008 44.3644H48.8291C48.9066 43.8495 48.8314 43.4598 48.6035 43.1955C48.3802 42.9266 48.0612 42.7922 47.6465 42.7922ZM56.2256 46.1349H58.2148C58.0462 46.7274 57.7135 47.2879 57.2168 47.8166C56.4238 48.6688 55.4281 49.0949 54.2295 49.0949C53.0309 49.0949 52.2243 48.7394 51.8096 48.0285C51.3994 47.3176 51.3151 46.3947 51.5566 45.2599C51.8255 43.9793 52.3473 42.9836 53.1221 42.2726C53.9014 41.5617 54.8402 41.2062 55.9385 41.2062C56.8727 41.2062 57.5928 41.4159 58.0986 41.8351C58.6045 42.2544 58.7982 42.995 58.6797 44.0568H56.6836C56.7064 43.7788 56.6654 43.5282 56.5605 43.3049C56.4056 43.0041 56.098 42.8537 55.6377 42.8537C54.9814 42.8537 54.4642 43.1795 54.0859 43.8312C53.8854 44.1776 53.7236 44.6379 53.6006 45.2121C53.4867 45.759 53.457 46.1988 53.5117 46.5314C53.612 47.1512 53.9834 47.4611 54.626 47.4611C55.0817 47.4611 55.4303 47.3381 55.6719 47.092C55.918 46.8459 56.1025 46.5269 56.2256 46.1349ZM63.8203 42.8127C63.3053 42.8127 62.877 42.9859 62.5352 43.3322C62.1979 43.674 61.9609 44.1639 61.8242 44.8019L60.9697 48.8351H59.0283L61.1611 38.7932H63.1025L62.3438 42.3547C62.7174 41.9217 63.1071 41.621 63.5127 41.4523C63.9229 41.2792 64.333 41.1926 64.7432 41.1926C65.2035 41.1926 65.6045 41.2723 65.9463 41.4318C66.2881 41.5913 66.5456 41.8351 66.7188 42.1633C66.8646 42.4413 66.9284 42.7284 66.9102 43.0246C66.8965 43.3163 66.819 43.7948 66.6777 44.4601L65.748 48.8351H63.7588L64.7158 44.3029C64.8024 43.9019 64.8047 43.5783 64.7227 43.3322C64.6178 42.9859 64.3171 42.8127 63.8203 42.8127ZM73.2881 44.3029C73.3747 43.911 73.3861 43.6102 73.3223 43.4006C73.2129 43.0178 72.8893 42.8264 72.3516 42.8264C71.6908 42.8264 71.1781 43.1066 70.8135 43.6672C70.6221 43.9634 70.4785 44.3417 70.3828 44.8019L69.5283 48.8351H67.5869L69.166 41.3976H71.0459L70.8135 42.4846C71.1462 42.1017 71.4424 41.826 71.7021 41.6574C72.167 41.3566 72.707 41.2062 73.3223 41.2062C74.0924 41.2062 74.6781 41.409 75.0791 41.8146C75.4847 42.2157 75.5895 42.8833 75.3936 43.8176L74.3271 48.8351H72.3311L73.2881 44.3029ZM83.7266 42.3273C84.1868 43.1157 84.3031 44.0477 84.0752 45.1232C83.8428 46.217 83.3278 47.1535 82.5303 47.9328C81.7373 48.7075 80.7005 49.0949 79.4199 49.0949C78.1393 49.0949 77.2666 48.7075 76.8018 47.9328C76.3415 47.1535 76.2275 46.217 76.46 45.1232C76.6878 44.0477 77.2005 43.1157 77.998 42.3273C78.7956 41.5389 79.8346 41.1447 81.1152 41.1447C82.3958 41.1447 83.2663 41.5389 83.7266 42.3273ZM80.7529 42.7922C80.1833 42.7922 79.7025 42.995 79.3105 43.4006C78.9186 43.8016 78.6429 44.3758 78.4834 45.1232C78.3239 45.8706 78.3535 46.4471 78.5723 46.8527C78.7956 47.2583 79.1921 47.4611 79.7617 47.4611C80.3314 47.4611 80.8122 47.2583 81.2041 46.8527C81.596 46.4471 81.8717 45.8706 82.0312 45.1232C82.1908 44.3758 82.1589 43.8016 81.9355 43.4006C81.7168 42.995 81.3226 42.7922 80.7529 42.7922ZM84.7314 48.8351L86.8711 38.759H88.8193L86.6797 48.8351H84.7314ZM96.1816 42.3273C96.6419 43.1157 96.7581 44.0477 96.5303 45.1232C96.2979 46.217 95.7829 47.1535 94.9854 47.9328C94.1924 48.7075 93.1556 49.0949 91.875 49.0949C90.5944 49.0949 89.7217 48.7075 89.2568 47.9328C88.7965 47.1535 88.6826 46.217 88.915 45.1232C89.1429 44.0477 89.6556 43.1157 90.4531 42.3273C91.2507 41.5389 92.2897 41.1447 93.5703 41.1447C94.8509 41.1447 95.7214 41.5389 96.1816 42.3273ZM93.208 42.7922C92.6383 42.7922 92.1576 42.995 91.7656 43.4006C91.3737 43.8016 91.098 44.3758 90.9385 45.1232C90.779 45.8706 90.8086 46.4471 91.0273 46.8527C91.2507 47.2583 91.6471 47.4611 92.2168 47.4611C92.7865 47.4611 93.2673 47.2583 93.6592 46.8527C94.0511 46.4471 94.3268 45.8706 94.4863 45.1232C94.6458 44.3758 94.6139 43.8016 94.3906 43.4006C94.1719 42.995 93.7777 42.7922 93.208 42.7922ZM99.5449 51.884C98.5924 51.884 97.8542 51.6971 97.3301 51.3234C96.8105 50.9497 96.5964 50.3915 96.6875 49.6486H98.8066C98.8158 49.8765 98.8704 50.0405 98.9707 50.1408C99.1439 50.3185 99.4788 50.4074 99.9756 50.4074C100.677 50.4074 101.197 50.1727 101.534 49.7033C101.753 49.4025 101.938 48.8967 102.088 48.1857L102.19 47.7072C101.935 48.0262 101.682 48.2655 101.432 48.425C100.98 48.7212 100.445 48.8693 99.8252 48.8693C98.8682 48.8693 98.1755 48.5344 97.7471 47.8644C97.3187 47.19 97.2275 46.2785 97.4736 45.1301C97.7061 44.0226 98.1777 43.093 98.8887 42.341C99.6042 41.5845 100.468 41.2062 101.479 41.2062C101.853 41.2062 102.165 41.2632 102.416 41.3771C102.849 41.5731 103.157 41.9331 103.339 42.4572L103.564 41.384H105.458L103.954 48.4523C103.754 49.4139 103.439 50.1385 103.011 50.6262C102.277 51.4647 101.122 51.884 99.5449 51.884ZM99.4834 45.1369C99.3923 45.5698 99.3854 45.9549 99.4629 46.2922C99.5905 46.9211 99.9961 47.2355 100.68 47.2355C101.135 47.2355 101.557 47.0646 101.944 46.7228C102.332 46.3765 102.605 45.8273 102.765 45.0754C102.915 44.369 102.881 43.8312 102.662 43.4621C102.443 43.093 102.083 42.9084 101.582 42.9084C100.898 42.9084 100.358 43.2297 99.9619 43.8723C99.7523 44.2141 99.5928 44.6356 99.4834 45.1369ZM107.598 49.1633L106.518 41.384H108.685L109.143 46.8801L111.85 41.384H113.921L109.806 48.7121C109.013 50.1249 108.436 50.9999 108.076 51.3371C107.721 51.6789 107.112 51.8498 106.251 51.8498C106.078 51.8498 105.939 51.8475 105.834 51.843C105.729 51.843 105.574 51.8361 105.369 51.8224L105.697 50.2639L105.943 50.2775C106.13 50.2866 106.312 50.2798 106.49 50.257C106.668 50.2342 106.825 50.1818 106.962 50.0998C107.094 50.0223 107.235 49.8605 107.386 49.6144C107.536 49.3683 107.607 49.218 107.598 49.1633Z" fill="#818181"/>
</svg>
