<svg width="72" height="72" viewBox="0 0 72 72" fill="none" xmlns="http://www.w3.org/2000/svg">
<path d="M48 39L63.669 49.446C63.8949 49.5963 64.1573 49.6825 64.4283 49.6955C64.6993 49.7085 64.9688 49.6477 65.208 49.5196C65.4472 49.3916 65.6472 49.201 65.7867 48.9683C65.9261 48.7355 65.9999 48.4693 66 48.198V23.61C66.0001 23.3461 65.9305 23.0868 65.7983 22.8583C65.6662 22.6299 65.476 22.4404 65.2472 22.3089C65.0183 22.1774 64.7588 22.1087 64.4949 22.1096C64.231 22.1105 63.972 22.181 63.744 22.314L48 31.5M12 18H42C45.3137 18 48 20.6863 48 24V48C48 51.3137 45.3137 54 42 54H12C8.68629 54 6 51.3137 6 48V24C6 20.6863 8.68629 18 12 18Z" stroke="#818181" stroke-width="6" stroke-linecap="round" stroke-linejoin="round"/>
</svg>
